<svg xmlns="http://www.w3.org/2000/svg" viewBox="0 0 900 620">
  <defs><linearGradient id="g" x1="0" x2="1" y1="0" y2="1"><stop stop-color="#111827"/><stop offset=".45" stop-color="#7c3aed"/><stop offset="1" stop-color="#06b6d4"/></linearGradient></defs>
  <rect width="900" height="620" fill="url(#g)"/>
  <circle cx="130" cy="120" r="70" fill="#fde68a"/>
  <path d="M70 360h100v260H70zM210 280h130v340H210zM385 330h95v290h-95zM525 230h145v390H525zM710 310h120v310H710z" fill="#020617" opacity=".82"/>
  <g fill="#fde68a" opacity=".9">
    <rect x="240" y="320" width="28" height="36"/><rect x="285" y="320" width="28" height="36"/><rect x="555" y="275" width="32" height="38"/><rect x="605" y="275" width="32" height="38"/><rect x="742" y="350" width="28" height="34"/>
  </g>
  <path d="M0 520c210-60 350 30 560 0 130-18 230-44 340-18v118H0z" fill="#0f172a" opacity=".5"/>
</svg>
